# xmcd
#
# Track frame offsets:
#	150
#	13535
#	28061
#	42520
#	52724
#	65495
#	77877
#	91847
#	104593
#	116354
#	127748
#	139629
#	151478
#	168360
#	179232
#
# Disc length: 2542 seconds
#
# Revision: 1
# Processed by: cddbd v1.5.2PL0 Copyright (c) Steve Scherf et al.
# Submitted via: audiograbber 1.83.01
#
DISCID=c009ec0f
DTITLE=Various Artist - Country Ladies
DYEAR=1900
DGENRE=Country
TTITLE0=Wells Kitty - I Don't Claim to Be an Angel
TTITLE1=Lynn Loretta - Coalminer's Daughter
TTITLE2=Riley Jeannie C. - Harper Valley P.T.A.
TTITLE3=Parton Dolly - Release Me
TTITLE4=Anderson Lynn - I Never Promised You a Rose Garden
TTITLE5=Spears Billie Jo - The Cheatin' Kind
TTITLE6=Remington Rita - Angel of the Morning
TTITLE7=Shepard Jean - Beautiful Lies
TTITLE8=Fairchild Barbara - You Can't Put the City in a Country Girl
TTITLE9=Wells Kitty - It Wasn't God Who Made Honkey Tonk Angels
TTITLE10=Davis Skeeter - End of the World
TTITLE11=Page Patti - Detour
TTITLE12=Anderson Lynn - Blue Bayou
TTITLE13=Lynn Loretta - Crazy [Live]
TTITLE14=Cline Patsy - Walkin' After Midnight
EXTD=
EXTT0=
EXTT1=
EXTT2=
EXTT3=
EXTT4=
EXTT5=
EXTT6=
EXTT7=
EXTT8=
EXTT9=
EXTT10=
EXTT11=
EXTT12=
EXTT13=
EXTT14=
PLAYORDER=
